<svg width="20" height="20" viewBox="0 0 20 20" fill="none" xmlns="http://www.w3.org/2000/svg">
<g id="copy" clip-path="url(#clip0_611_1568)">
<path id="Icon" d="M4.16797 12.4998H3.33464C2.89261 12.4998 2.46868 12.3242 2.15612 12.0117C1.84356 11.6991 1.66797 11.2752 1.66797 10.8332V3.33317C1.66797 2.89114 1.84356 2.46722 2.15612 2.15466C2.46868 1.8421 2.89261 1.6665 3.33464 1.6665H10.8346C11.2767 1.6665 11.7006 1.8421 12.0131 2.15466C12.3257 2.46722 12.5013 2.89114 12.5013 3.33317V4.1665M9.16797 7.49984H16.668C17.5884 7.49984 18.3346 8.24603 18.3346 9.1665V16.6665C18.3346 17.587 17.5884 18.3332 16.668 18.3332H9.16797C8.24749 18.3332 7.5013 17.587 7.5013 16.6665V9.1665C7.5013 8.24603 8.24749 7.49984 9.16797 7.49984Z" stroke="#120B48" stroke-width="1.67" stroke-linecap="round" stroke-linejoin="round"/>
</g>
<defs>
<clipPath id="clip0_611_1568">
<rect width="20" height="20" fill="white"/>
</clipPath>
</defs>
</svg>
