<svg width="25" height="24" viewBox="0 0 25 24" fill="none" xmlns="http://www.w3.org/2000/svg">
<g id="Facebook svg" clip-path="url(#clip0_205_4761)">
<g id="g10">
<g id="g12">
<path id="path14" d="M24.5 11.9993C24.5 5.37187 19.1274 -0.000705719 12.5 -0.000705719C5.87258 -0.000705719 0.5 5.37187 0.5 11.9993C0.5 17.9888 4.88823 22.9533 10.625 23.8535V15.468H7.57813V11.9993H10.625V9.35554C10.625 6.34805 12.4165 4.68679 15.1576 4.68679C16.4705 4.68679 17.8438 4.92117 17.8438 4.92117V7.87429H16.3306C14.8399 7.87429 14.375 8.7993 14.375 9.74829V11.9993H17.7031L17.1711 15.468H14.375V23.8535C20.1118 22.9533 24.5 17.9888 24.5 11.9993Z" fill="#1877F2"/>
<path id="path16" d="M17.1711 15.4688L17.7031 12H14.375V9.74899C14.375 8.80001 14.8399 7.875 16.3306 7.875H17.8438V4.92188C17.8438 4.92188 16.4705 4.6875 15.1576 4.6875C12.4165 4.6875 10.625 6.34875 10.625 9.35625V12H7.57812V15.4688H10.625V23.8542C11.2359 23.9501 11.8621 24 12.5 24C13.1379 24 13.7641 23.9501 14.375 23.8542V15.4688H17.1711Z" fill="white"/>
</g>
</g>
</g>
<defs>
<clipPath id="clip0_205_4761">
<rect width="24" height="24" fill="white" transform="translate(0.5)"/>
</clipPath>
</defs>
</svg>
